# xmcd CD database file
#
# Track frame offsets:
#	150
#	20267
#	34125
#	55845
#	71940
#	85307
#	106437
#	129357
#	153587
#	166067
#
# Disc length: 2403 seconds
#
# Revision: 0
# Processed by: cddbd v1.5.1PL0 Copyright (c) Steve Scherf et al.
# Submitted via: CDex 1.51
#
DISCID=7e09610a
DTITLE=Oskar Schönning - Oskar Schönning
DYEAR=2005
DGENRE=Jazz
TTITLE0=Film
TTITLE1=Psalm
TTITLE2=Längre hem
TTITLE3=Kanske aldrig
TTITLE4=Marsch
TTITLE5=Louise
TTITLE6=Tralfamadore
TTITLE7=Sigge van Hempel
TTITLE8=Hets
TTITLE9=Godnatt
EXTD=YEAR: 2005
EXTT0=
EXTT1=
EXTT2=
EXTT3=
EXTT4=
EXTT5=
EXTT6=
EXTT7=
EXTT8=
EXTT9=
PLAYORDER=
